<?xml version="1.0" encoding="UTF-8"?>
<svg xmlns="http://www.w3.org/2000/svg" xmlns:xlink="http://www.w3.org/1999/xlink" viewBox="0 0 512 512">
  <defs>
    <style>
      .cls-1, .cls-2, .cls-3, .cls-4, .cls-5 {
        stroke: #fff;
        stroke-miterlimit: 10;
      }

      .cls-1, .cls-3, .cls-4, .cls-5 {
        fill: none;
      }

      .cls-2 {
        fill: url(#linear-gradient);
      }

      .cls-6 {
        opacity: .35;
      }

      .cls-3 {
        stroke-dasharray: 0 6;
      }

      .cls-3, .cls-4, .cls-5 {
        stroke-linecap: round;
      }

      .cls-7 {
        clip-path: url(#clippath);
      }

      .cls-5 {
        stroke-dasharray: 0 0 5.08 5.08;
      }

      .cls-8 {
        fill: #001484;
      }
    </style>
    <clipPath id="clippath">
      <path class="cls-1" d="m341.81,124.85c11.35,9.06,16.83,20.16,16.83,32.73v57.56h-79.79v-40.03h-45.38v49.97h50.14c20.86,0,38.43,5.84,53.07,17.53,14.64,11.69,21.96,25.71,21.96,42.08v118.93h-204.96v-103.73h79.79v40.03h45.38v-51.14h-53.8c-19.76,0-36.6-5.55-50.51-16.66-13.91-11.1-20.86-24.54-20.86-40.32v-74.22c0-12.57,5.86-23.67,17.2-32.73,11.35-9.06,24.89-13.44,40.63-13.44h89.3c15.74,0,29.65,4.38,40.99,13.44Z"/>
    </clipPath>
    <linearGradient id="linear-gradient" x1="-.87" y1="139.71" x2="511.13" y2="139.71" gradientUnits="userSpaceOnUse">
      <stop offset="0" stop-color="#fff"/>
      <stop offset="-nan(ind)" stop-color="#231f20"/>
    </linearGradient>
  </defs>
  <g id="Layer_1" data-name="Layer 1">
    <rect class="cls-8" width="512" height="512"/>
    <g>
      <g class="cls-7">
        <g class="cls-6">
          <rect class="cls-1" x="-.87" y="-13.89" width="512" height="512"/>
          <line class="cls-1" x1="-.87" y1="481.04" x2="511.13" y2="481.04"/>
          <line class="cls-1" x1="-.87" y1="463.97" x2="511.13" y2="463.97"/>
          <line class="cls-1" x1="-.87" y1="446.91" x2="511.13" y2="446.91"/>
          <line class="cls-1" x1="-.87" y1="429.84" x2="511.13" y2="429.84"/>
          <line class="cls-1" x1="-.87" y1="412.77" x2="511.13" y2="412.77"/>
          <line class="cls-1" x1="-.87" y1="395.71" x2="511.13" y2="395.71"/>
          <line class="cls-1" x1="-.87" y1="378.64" x2="511.13" y2="378.64"/>
          <line class="cls-1" x1="-.87" y1="361.57" x2="511.13" y2="361.57"/>
          <line class="cls-1" x1="-.87" y1="344.51" x2="511.13" y2="344.51"/>
          <line class="cls-1" x1="-.87" y1="327.44" x2="511.13" y2="327.44"/>
          <line class="cls-1" x1="-.87" y1="310.37" x2="511.13" y2="310.37"/>
          <line class="cls-1" x1="-.87" y1="293.31" x2="511.13" y2="293.31"/>
          <line class="cls-1" x1="-.87" y1="276.24" x2="511.13" y2="276.24"/>
          <line class="cls-1" x1="-.87" y1="259.17" x2="511.13" y2="259.17"/>
          <line class="cls-1" x1="-.87" y1="242.11" x2="511.13" y2="242.11"/>
          <line class="cls-1" x1="-.87" y1="225.04" x2="511.13" y2="225.04"/>
          <line class="cls-1" x1="-.87" y1="207.97" x2="511.13" y2="207.97"/>
          <line class="cls-1" x1="-.87" y1="190.91" x2="511.13" y2="190.91"/>
          <line class="cls-1" x1="-.87" y1="173.84" x2="511.13" y2="173.84"/>
          <polyline class="cls-1" points="-.87 156.77 340.91 156.77 511.13 156.77"/>
          <line class="cls-2" x1="-.87" y1="139.71" x2="511.13" y2="139.71"/>
          <line class="cls-1" x1="-.87" y1="122.64" x2="511.13" y2="122.64"/>
          <line class="cls-1" x1="-.87" y1="105.57" x2="511.13" y2="105.57"/>
          <line class="cls-1" x1="-.87" y1="88.51" x2="511.13" y2="88.51"/>
          <line class="cls-1" x1="-.87" y1="71.44" x2="511.13" y2="71.44"/>
          <line class="cls-1" x1="-.87" y1="54.37" x2="511.13" y2="54.37"/>
          <line class="cls-1" x1="-.87" y1="37.31" x2="511.13" y2="37.31"/>
          <line class="cls-1" x1="-.87" y1="20.24" x2="511.13" y2="20.24"/>
          <line class="cls-1" x1="-.87" y1="3.17" x2="511.13" y2="3.17"/>
          <line class="cls-1" x1="490.65" y1="-13.89" x2="490.65" y2="498.11"/>
          <line class="cls-1" x1="470.17" y1="-13.89" x2="470.17" y2="498.11"/>
          <line class="cls-1" x1="449.69" y1="-13.89" x2="449.69" y2="498.11"/>
          <line class="cls-1" x1="429.21" y1="-13.89" x2="429.21" y2="498.11"/>
          <line class="cls-1" x1="408.73" y1="-13.89" x2="408.73" y2="498.11"/>
          <line class="cls-1" x1="388.25" y1="-13.89" x2="388.25" y2="498.11"/>
          <line class="cls-1" x1="367.77" y1="-13.89" x2="367.77" y2="498.11"/>
          <line class="cls-1" x1="347.29" y1="-13.89" x2="347.29" y2="498.11"/>
          <line class="cls-1" x1="326.81" y1="-13.89" x2="326.81" y2="498.11"/>
          <line class="cls-1" x1="306.33" y1="-13.89" x2="306.33" y2="498.11"/>
          <line class="cls-1" x1="285.85" y1="-13.89" x2="285.85" y2="498.11"/>
          <line class="cls-1" x1="265.37" y1="-13.89" x2="265.37" y2="498.11"/>
          <line class="cls-1" x1="244.89" y1="-13.89" x2="244.89" y2="498.11"/>
          <line class="cls-1" x1="224.41" y1="-13.89" x2="224.41" y2="498.11"/>
          <line class="cls-1" x1="203.93" y1="-13.89" x2="203.93" y2="498.11"/>
          <line class="cls-1" x1="183.45" y1="-13.89" x2="183.45" y2="498.11"/>
          <line class="cls-1" x1="162.97" y1="-13.89" x2="162.97" y2="498.11"/>
          <line class="cls-1" x1="142.49" y1="-13.89" x2="142.49" y2="498.11"/>
          <line class="cls-1" x1="122.01" y1="-13.89" x2="122.01" y2="498.11"/>
          <line class="cls-1" x1="101.53" y1="-13.89" x2="101.53" y2="498.11"/>
          <line class="cls-1" x1="81.05" y1="-13.89" x2="81.05" y2="498.11"/>
          <line class="cls-1" x1="60.57" y1="-13.89" x2="60.57" y2="498.11"/>
          <line class="cls-1" x1="40.09" y1="-13.89" x2="40.09" y2="498.11"/>
          <line class="cls-1" x1="19.61" y1="-13.89" x2="19.61" y2="498.11"/>
        </g>
      </g>
      <path class="cls-1" d="m341.81,124.85c11.35,9.06,16.83,20.16,16.83,32.73v57.56h-79.79v-40.03h-45.38v49.97h50.14c20.86,0,38.43,5.84,53.07,17.53,14.64,11.69,21.96,25.71,21.96,42.08v118.93h-204.96v-103.73h79.79v40.03h45.38v-51.14h-53.8c-19.76,0-36.6-5.55-50.51-16.66-13.91-11.1-20.86-24.54-20.86-40.32v-74.22c0-12.57,5.86-23.67,17.2-32.73,11.35-9.06,24.89-13.44,40.63-13.44h89.3c15.74,0,29.65,4.38,40.99,13.44Z"/>
    </g>
  </g>
  <g id="Layer_2" data-name="Layer 2">
    <g>
      <line class="cls-4" x1="366.5" y1="87.5" x2="366.02" y2="90.46"/>
      <line class="cls-5" x1="365.21" y1="95.48" x2="362.38" y2="113.03"/>
      <line class="cls-4" x1="361.98" y1="115.54" x2="361.5" y2="118.5"/>
    </g>
    <line class="cls-3" x1="362.5" y1="84.5" x2="339.5" y2="101.5"/>
    <line class="cls-3" x1="360.5" y1="81.5" x2="332.5" y2="79.5"/>
    <path class="cls-1" d="m483.12,157.4l-48.48,32.45-13.87-20.75,48.48-32.45,13.87,20.75Zm-50.62-75.72l-48.48,32.45,36.75,54.98,48.48-32.45-36.75-54.98Zm-20.78-17.62l-36.05,24.13,6.7,10.03,36.05-24.13-6.7-10.03Zm-21.16-12.86l-17.62,11.79,12.47,18.68,17.62-11.79-12.47-18.68Zm-23.48,32.22l13.48-9.01-2.77-4.15-13.48,9.01,2.77,4.15Zm51.41-8.91l14,7m-49.07,32.35l-.93-15.35"/>
  </g>
</svg>